<?xml version="1.0" encoding="utf-8"?>
<!-- Generator: Adobe Illustrator 20.0.0, SVG Export Plug-In . SVG Version: 6.00 Build 0)  -->
<svg version="1.1" id="Layer_1" xmlns="http://www.w3.org/2000/svg" xmlns:xlink="http://www.w3.org/1999/xlink" x="0px" y="0px"
	 viewBox="0 0 640 245" style="enable-background:new 0 0 640 245;" xml:space="preserve">
<style type="text/css">
	.st0{fill-rule:evenodd;clip-rule:evenodd;fill:#912347;}
	.st1{fill:#1A396E;}
</style>
<g>
	<g>
		<path class="st0" d="M48.6,82.3c10.1-47.1,142.3-61,295.2-30.9c66.2,13,125.5,32.2,170.6,53.5c-48.1-27.6-113.5-54-187.6-73.7
			C162.3-12.6,17-7.2,2.4,43.2c-8.2,28.3,26.4,64.7,87.4,99C60.2,121.8,44.7,100.8,48.6,82.3z"/>
		<path class="st0" d="M307.2,222.1c-0.2,0-0.4-0.1-0.6-0.1c150.6,34.7,277.9,26.9,291.5-20.2c0.1-0.4,0.2-0.7,0.3-1.1
			C573.5,240.1,449.3,250,307.2,222.1z"/>
	</g>
	<g>
		<path class="st1" d="M138.6,95.8c4.2,4.5,5.6,10.8,4.3,18.9c-1.3,8.1-4.8,14.5-10.4,19.2c-5.6,4.7-13.4,7.1-23.3,7.1H91.5
			l8.6-51.9h18.3C127.7,89,134.4,91.2,138.6,95.8z M125,126.6c3.3-2.7,5.4-6.6,6.2-11.7c0.8-5.1,0.1-9-2.3-11.8
			c-2.4-2.7-6.5-4.1-12.4-4.1H110l-5.2,31.6h7.4C117.4,130.6,121.7,129.3,125,126.6z"/>
		<path class="st1" d="M154.9,140.9h-11.1l6.6-39.9h11.1L154.9,140.9z M152.2,95.8c-1.1-1.3-1.4-2.8-1.1-4.6s1.2-3.4,2.7-4.6
			c1.5-1.3,3.1-1.9,5-1.9c1.8,0,3.3,0.6,4.3,1.9c1.1,1.3,1.4,2.8,1.1,4.6s-1.2,3.4-2.7,4.6c-1.5,1.3-3.1,1.9-5,1.9
			C154.7,97.7,153.2,97.1,152.2,95.8z"/>
		<path class="st1" d="M172.5,140.9l-9.2-40h11.6l5.8,25.2l14.1-25.2h11.6l-22.5,40H172.5z"/>
		<path class="st1" d="M237.1,135.1c-5.2,4.3-10.9,6.4-16.9,6.4c-6.1,0-10.8-1.9-14.1-5.6c-3.3-3.7-4.5-8.7-3.4-15
			c1-6.3,3.9-11.3,8.5-15c4.7-3.7,9.7-5.6,15.2-5.6s9.9,1.7,13.2,5c3.3,3.3,4.4,7.9,3.5,13.7l-1,5.9H213c0,2.2,0.8,4,2.5,5.3
			c1.7,1.4,3.8,2.1,6.2,2.1c3.9,0,7.3-1.3,10.3-3.9L237.1,135.1z M230.3,111.4c-1.3-1.3-3.1-1.9-5.3-1.9c-2.2,0-4.3,0.7-6.4,2
			c-2.1,1.3-3.4,3.1-4.1,5.4h17.5C232.2,114.5,231.7,112.7,230.3,111.4z"/>
		<path class="st1" d="M269.7,110.7c-3.3,0-6,1.2-8,3.5c-2,2.4-3.4,5.5-4,9.3l-2.9,17.3h-11.1l6.6-39.9h11.1l-0.9,5.3
			c1.7-1.6,3.7-3,6.1-4.2c2.3-1.1,4.6-1.7,6.9-1.8l-1.7,10.5H269.7z"/>
		<path class="st1" d="M302.6,128.4c-0.7,3.9-2.6,7.1-5.9,9.5c-3.3,2.4-7.2,3.6-11.6,3.6c-3,0-6-0.5-9-1.6c-3-1.1-5.7-2.6-7.9-4.7
			l6.1-7c3.6,3.2,7.8,4.8,12.5,4.8c1.4,0,2.6-0.3,3.6-0.9c0.9-0.6,1.5-1.3,1.6-2.3c0.2-0.9-0.3-1.8-1.3-2.6c-1-0.8-2.6-1.5-4.7-2.2
			c-2.1-0.7-3.7-1.3-4.8-1.8c-1.1-0.5-2.3-1.2-3.6-2.2c-2.7-1.9-3.8-4.7-3.1-8.4c0.6-3.7,2.6-6.7,6-9s7.4-3.5,12.1-3.5
			c4.7,0,9.1,1.6,13.3,4.8l-5.4,7.4c-3.1-2.4-6.3-3.6-9.8-3.6c-3.4,0-5.3,0.9-5.6,2.8c-0.2,1,0.2,1.9,1.2,2.5c1,0.6,2.7,1.3,5.1,2.1
			c2.4,0.8,4.1,1.4,5.1,1.8c1,0.4,2.2,1.1,3.5,2C302.4,121.7,303.3,124.5,302.6,128.4z"/>
		<path class="st1" d="M316.5,140.9h-11.1l6.6-39.9h11.1L316.5,140.9z M313.8,95.8c-1.1-1.3-1.4-2.8-1.1-4.6s1.2-3.4,2.7-4.6
			c1.5-1.3,3.1-1.9,5-1.9c1.8,0,3.3,0.6,4.3,1.9c1.1,1.3,1.4,2.8,1.1,4.6s-1.2,3.4-2.7,4.6c-1.5,1.3-3.1,1.9-5,1.9
			C316.3,97.7,314.9,97.1,313.8,95.8z"/>
		<path class="st1" d="M343.7,98.6l-0.4,2.7h9.7l-1.3,8h-9.7l-5.2,31.6h-11.2l5.2-31.6H326l1.3-8h4.7l0.4-2.5
			c0.7-4.4,2.6-7.8,5.7-10.4c3.1-2.5,6.6-3.8,10.5-3.8c3.9,0,7.3,1.5,10,4.5l-5.3,7.5c-1.3-1.9-3-2.8-5-2.8c-1.1,0-2.1,0.4-3,1.2
			C344.5,95.8,343.9,97,343.7,98.6z"/>
		<path class="st1" d="M360.6,140.9h-11.1l6.6-39.9h11.1L360.6,140.9z M357.9,95.8c-1.1-1.3-1.4-2.8-1.1-4.6s1.2-3.4,2.7-4.6
			c1.5-1.3,3.1-1.9,5-1.9c1.8,0,3.3,0.6,4.3,1.9c1.1,1.3,1.4,2.8,1.1,4.6s-1.2,3.4-2.7,4.6c-1.5,1.3-3.1,1.9-5,1.9
			C360.4,97.7,359,97.1,357.9,95.8z"/>
		<path class="st1" d="M403,135.1c-5.2,4.3-10.9,6.4-16.9,6.4c-6.1,0-10.8-1.9-14.1-5.6c-3.3-3.7-4.5-8.7-3.4-15
			c1-6.3,3.9-11.3,8.5-15c4.7-3.7,9.7-5.6,15.2-5.6s9.9,1.7,13.2,5c3.3,3.3,4.4,7.9,3.5,13.7l-1,5.9h-29.1c0,2.2,0.8,4,2.5,5.3
			c1.7,1.4,3.8,2.1,6.2,2.1c3.9,0,7.3-1.3,10.3-3.9L403,135.1z M396.3,111.4c-1.3-1.3-3.1-1.9-5.3-1.9s-4.3,0.7-6.4,2
			c-2.1,1.3-3.4,3.1-4.1,5.4H398C398.2,114.5,397.6,112.7,396.3,111.4z"/>
		<path class="st1" d="M425.5,141.5c-4.7,0-8.6-2-11.7-6c-3-4-4.1-9-3.1-14.9c1-5.9,3.6-10.8,7.8-14.6c4.2-3.8,8.8-5.7,13.6-5.7
			c4.9,0,8.5,1.7,11,5.1l3.3-19.6h11.1l-9.2,55.1h-11.1l0.9-5.3C434.5,139.5,430.3,141.5,425.5,141.5z M421.9,121
			c-0.5,3.2,0,5.9,1.6,7.9c1.6,2.1,3.7,3.1,6.2,3.1c2.6,0,4.9-1,7.1-3.1c2.1-2.1,3.5-4.7,4-7.9c0.5-3.2,0.1-5.9-1.4-8.1
			s-3.5-3.2-6.1-3.2c-2.6,0-5.1,1.1-7.3,3.3C423.8,115.1,422.5,117.7,421.9,121z"/>
	</g>
	<g>
		<path class="st1" d="M223.4,157.5l-7.1,42.6h-8.5l7.1-42.6h-15.3l1.3-7.8h39l-1.3,7.8H223.4z"/>
		<path class="st1" d="M272.5,184.4h-30c-0.3,2.8,0.6,5,2.7,6.7c2.1,1.7,4.6,2.6,7.6,2.6c4.8,0,8.7-1.5,11.7-4.5l3.8,5
			c-4.8,4.3-10.6,6.4-17.2,6.4c-5.4,0-9.7-1.8-12.8-5.4c-3.2-3.6-4.3-8.4-3.3-14.4c1-6,3.7-10.8,8.2-14.4c4.4-3.6,9.3-5.3,14.5-5.3
			c5.2,0,9.4,1.6,12.5,4.7c3.1,3.1,4.2,7.5,3.3,13L272.5,184.4z M243.6,178.1h22c0.5-3.2-0.1-5.7-1.8-7.4c-1.7-1.7-4.1-2.6-7-2.6
			s-5.8,0.9-8.4,2.7C245.7,172.6,244.1,175,243.6,178.1z"/>
		<path class="st1" d="M290.3,200.6c-5.3,0-9.6-1.8-12.8-5.4c-3.2-3.6-4.4-8.4-3.4-14.2c1-5.9,3.8-10.6,8.4-14.3
			c4.6-3.7,9.8-5.5,15.6-5.5s10.3,2,13.6,6l-5.7,5.8c-2.8-2.9-5.9-4.3-9.3-4.3c-3.4,0-6.5,1.1-9.3,3.3c-2.8,2.2-4.6,5.1-5.1,8.6
			c-0.6,3.5,0.1,6.5,2.2,9c2,2.4,4.8,3.7,8.4,3.7c3.6,0,7.2-1.6,10.9-4.9l3.9,5.2C302.2,198.3,296.4,200.6,290.3,200.6z"/>
		<path class="st1" d="M321,179.3l-3.4,20.7h-8.1l8.9-53.4h8.1l-3.7,22c1.5-2.4,3.6-4.2,6.1-5.5c2.6-1.3,5.2-2,7.9-2
			c4.3,0,7.6,1.3,9.8,4c2.2,2.6,2.9,6.5,2.1,11.5l-3.9,23.5h-8.1l3.5-21c1.2-7.1-1.2-10.6-7-10.6c-2.8,0-5.4,0.9-7.7,2.8
			C323.1,173.1,321.6,175.8,321,179.3z"/>
		<path class="st1" d="M362.1,179.3l-3.4,20.7h-8.1l6.4-38.3h8.1l-1.2,7c1.7-2.4,3.8-4.2,6.3-5.5c2.5-1.3,5.1-2,7.7-2
			c4.3,0,7.6,1.3,9.8,4c2.2,2.6,2.9,6.5,2.1,11.5l-3.9,23.5h-8.1l3.5-21c1.2-7.1-1.2-10.6-7-10.6c-2.8,0-5.4,0.9-7.7,2.8
			C364.2,173.1,362.7,175.8,362.1,179.3z"/>
		<path class="st1" d="M424.6,194.9c-4.5,3.8-9.6,5.7-15.4,5.7s-10.2-1.9-13.5-5.7c-3.2-3.8-4.3-8.5-3.4-14c0.9-5.5,3.6-10.2,8.1-14
			c4.5-3.8,9.6-5.7,15.4-5.7s10.2,1.9,13.5,5.7c3.2,3.8,4.3,8.5,3.4,14C431.8,186.4,429.1,191.1,424.6,194.9z M402.4,190
			c1.9,2.3,4.6,3.5,8.1,3.5c3.5,0,6.6-1.2,9.3-3.5c2.7-2.3,4.3-5.3,4.9-9c0.6-3.7,0-6.7-1.9-9c-1.9-2.3-4.6-3.5-8.1-3.5
			c-3.5,0-6.6,1.2-9.3,3.5c-2.7,2.3-4.3,5.3-4.9,9C399.8,184.6,400.5,187.6,402.4,190z"/>
		<path class="st1" d="M441.3,200.1h-8.1l8.9-53.4h8.1L441.3,200.1z"/>
		<path class="st1" d="M480.5,194.9c-4.5,3.8-9.6,5.7-15.4,5.7s-10.2-1.9-13.5-5.7c-3.2-3.8-4.3-8.5-3.4-14c0.9-5.5,3.6-10.2,8.1-14
			c4.5-3.8,9.6-5.7,15.4-5.7s10.2,1.9,13.5,5.7c3.2,3.8,4.3,8.5,3.4,14C487.7,186.4,485,191.1,480.5,194.9z M458.2,190
			c1.9,2.3,4.6,3.5,8.1,3.5c3.5,0,6.6-1.2,9.3-3.5c2.7-2.3,4.3-5.3,4.9-9c0.6-3.7,0-6.7-1.9-9c-1.9-2.3-4.6-3.5-8.1-3.5
			c-3.5,0-6.6,1.2-9.3,3.5c-2.7,2.3-4.3,5.3-4.9,9C455.7,184.6,456.3,187.6,458.2,190z"/>
		<path class="st1" d="M530.9,161.8l-5.6,33.4c-1.1,6.8-3.8,11.8-8,15.2c-4.2,3.4-9.2,5.1-15,5.1s-10.7-1.8-14.7-5.4l4.8-6.1
			c3.3,2.8,6.8,4.2,10.6,4.2c3.8,0,7-1,9.6-3c2.6-2,4.2-5.1,4.9-9.4l0.8-4.9c-1.6,2.3-3.6,4.1-6,5.4c-2.5,1.3-5.1,2-7.9,2
			c-5.1,0-9-1.8-11.6-5.3c-2.7-3.6-3.6-8-2.7-13.3c0.9-5.3,3.2-9.7,7.1-13.2c3.9-3.6,8.3-5.3,13.4-5.3c5.1,0,8.8,2.1,11.3,6.3
			l0.9-5.7H530.9z M498.1,179.4c-0.5,3.1,0,5.9,1.6,8.1c1.6,2.3,4,3.4,7.3,3.4c3.3,0,6.1-1.1,8.5-3.3c2.4-2.2,3.9-5,4.4-8.2
			c0.5-3.3,0-6.1-1.7-8.4c-1.7-2.3-4.2-3.4-7.4-3.4c-3.3,0-6.1,1.2-8.4,3.5C500.1,173.5,498.6,176.3,498.1,179.4z"/>
		<path class="st1" d="M533.1,215.3c-3.5,0-6.5-1.3-8.9-3.8l4.8-6.6c1.4,1.6,3,2.4,4.8,2.4s3.4-0.6,4.7-1.9c1.3-1.3,2.1-2.7,2.4-4.2
			c0.1-0.7-2.9-13.8-8.9-39.4h8.6l6.8,28.2l16.1-28.2h8.6l-26.1,45.5c-1.5,2.5-3.4,4.5-5.7,5.9C538,214.6,535.6,215.3,533.1,215.3z"
			/>
	</g>
	<g>
		<path class="st1" d="M565.7,192.1c-0.5-0.6-0.7-1.4-0.6-2.3c0.1-0.9,0.6-1.7,1.3-2.3s1.5-0.9,2.4-0.9s1.6,0.3,2.2,0.9
			c0.5,0.6,0.7,1.4,0.6,2.3c-0.2,0.9-0.6,1.7-1.3,2.3s-1.6,1-2.5,1S566.2,192.7,565.7,192.1z"/>
		<path class="st1" d="M581.2,180.2l-2.1,12.5h-4.9l3.9-23.2h4.9l-0.7,4.2c1-1.4,2.3-2.5,3.8-3.4c1.5-0.8,3.1-1.2,4.7-1.2
			c2.6,0,4.6,0.8,5.9,2.4s1.8,3.9,1.3,6.9l-2.4,14.2h-4.9l2.1-12.7c0.7-4.3-0.7-6.4-4.3-6.4c-1.7,0-3.2,0.6-4.7,1.7
			C582.5,176.4,581.6,178,581.2,180.2z"/>
		<path class="st1" d="M622.3,183.3h-18.2c-0.2,1.7,0.4,3,1.6,4.1c1.3,1,2.8,1.5,4.6,1.5c2.9,0,5.3-0.9,7.1-2.7l2.3,3.1
			c-2.9,2.6-6.4,3.9-10.4,3.9c-3.3,0-5.8-1.1-7.8-3.2c-1.9-2.2-2.6-5.1-2-8.7s2.3-6.5,4.9-8.7s5.6-3.2,8.8-3.2c3.2,0,5.7,1,7.6,2.9
			c1.9,1.9,2.6,4.5,2,7.9L622.3,183.3z M604.8,179.4H618c0.3-1.9,0-3.4-1.1-4.5c-1-1-2.5-1.6-4.2-1.6c-1.8,0-3.5,0.5-5.1,1.6
			C606,176.1,605.1,177.6,604.8,179.4z"/>
		<path class="st1" d="M632,173.4l-2,11.8c-0.2,1.1,0,2,0.4,2.6c0.5,0.7,1.2,1,2.3,1s2.1-0.5,3.3-1.5l1.4,3.4c-2,1.5-4,2.3-6.1,2.3
			s-3.7-0.7-5-2.2c-1.2-1.4-1.6-3.4-1.2-5.8l1.9-11.6h-2.9l0.7-3.9h2.9l1.2-7.3h4.9l-1.2,7.3h6.1l-0.7,3.9H632z"/>
	</g>
</g>
</svg>
